# xmcd
#
# Track frame offsets: 
#        150
#        14025
#        29175
#        42900
#        61575
#        77020
#        89250
#        104175
#        120375
#        136275
#        150825
#        161550
#
# Disc length: 2315 seconds
#
# Revision: 5
# Processed by: cddbd v1.5.2PL0 Copyright (c) Steve Scherf et al.
# Submitted via: ExactAudioCopy v1.0b4
#
DISCID=9509090c
DTITLE=John Hammond - So Many Roads
DYEAR=1965
DGENRE=Blues
TTITLE0=Down In The Bottom
TTITLE1=Long Distance Call
TTITLE2=Who Do You Love
TTITLE3=I Want You To Love Me
TTITLE4=Judgement Day
TTITLE5=So Many Roads, So Many Trains
TTITLE6=Rambling Blues
TTITLE7=O Yea!
TTITLE8=You Can't Judge A Book By The Cover
TTITLE9=Gambling Blues
TTITLE10=Baby, Please Don't Go
TTITLE11=Big Boss Man
EXTD=YEAR: 1965
EXTT0=
EXTT1=
EXTT2=
EXTT3=
EXTT4=
EXTT5=
EXTT6=
EXTT7=
EXTT8=
EXTT9=
EXTT10=
EXTT11=
PLAYORDER=
